<?xml version="1.0" standalone="no"?>
<!DOCTYPE svg PUBLIC "-//W3C//DTD SVG 1.1//EN" "http://www.w3.org/Graphics/SVG/1.1/DTD/svg11.dtd" >
<svg>
<metadata>
Created by FontForge 20090622 at Sun Jul 10 05:58:11 2016
 By deploy user
Copyright (c) 2015 by Ellis Design. All rights reserved.
</metadata>
<defs>
<font id="Ikaros-Regular" horiz-adv-x="760" >
  <font-face 
    font-family="Ikaros Sans Regular"
    font-weight="400"
    font-stretch="normal"
    units-per-em="1000"
    panose-1="2 0 0 0 0 0 0 0 0 0"
    ascent="750"
    descent="-250"
    x-height="493"
    cap-height="700"
    bbox="-92 -965 1007 960"
    underline-thickness="50"
    underline-position="-100"
    unicode-range="U+0020-U+20AC"
  />
<missing-glyph horiz-adv-x="500" 
 />
    <glyph glyph-name=".notdef" horiz-adv-x="500" 
 />
    <glyph glyph-name=".null" horiz-adv-x="0" 
 />
    <glyph glyph-name="nonmarkingreturn" horiz-adv-x="333" 
 />
    <glyph glyph-name="space" unicode=" " horiz-adv-x="281" 
 />
    <glyph glyph-name="space" unicode="&#xa0;" horiz-adv-x="281" 
 />
    <glyph glyph-name="exclam" unicode="!" horiz-adv-x="176" 
d="M132 698v-534h-94v534h94zM145 57q0 -25 -17.5 -42t-41.5 -17q-25 0 -42 17t-17 42q0 24 17 41.5t42 17.5q24 0 41.5 -17.5t17.5 -41.5z" />
    <glyph glyph-name="numbersign" unicode="#" horiz-adv-x="932" 
d="M789 700h115l-104 -177h102v-90h-158l-100 -167h123v-92h-177l-103 -172h-111l102 172h-232l-102 -172h-111l101 172h-96v92h150l99 167h-114v90h168l104 177h116l-106 -177h229zM301 266h231l99 167h-230z" />
    <glyph glyph-name="dollar" unicode="$" horiz-adv-x="550" 
d="M323 -631q11 -2 11 -11q0 -12 -11 -12v-4h-5v4q-6 2 -9 6l2 4q3 -3 7 -5h3h1h1q7 0 7 7q0 5 -7 6h-1h-2h-1l-1 1q-9 1 -9 10t9 11v3h5v-4q4 0 8 -4l-3 -5q-1 4 -5 4h-2h-1h-2q-4 -1 -4 -5q0 -5 4 -5h2q1 -1 3 -1zM296 409q91 -12 147.5 -65.5t56.5 -137.5t-59.5 -144.5
t-144.5 -62.5v-78h-79v82q-112 17 -167 99l40 68q41 -62 127 -79q26 -6 44 -7h28h7q50 4 84.5 38t34.5 84q0 48 -30.5 73t-88.5 36q-5 0 -7 1q-6 1 -22 3t-25 4q-6 1 -14 2.5t-11 1.5q-74 19 -119.5 64t-45.5 114q0 74 47 129t118 65v66h79v-67q93 -15 142 -76l-47 -83
q-43 48 -95 64q-7 2 -20.5 4t-18.5 3h-15q-12 0 -25 -5q-33 -10 -53.5 -37.5t-20.5 -62.5q0 -67 74 -84q12 -6 25 -6l48 -4q2 -2 6 -2z" />
    <glyph glyph-name="uni0025" unicode="%" 
d="M189 702q62 0 106 -45t44 -109t-44 -109t-106 -45q-63 0 -107.5 45t-44.5 109t44.5 109t107.5 45zM261 548q0 32 -21 53.5t-51 21.5q-31 0 -52 -21.5t-21 -53.5q0 -31 21 -52.5t52 -21.5q29 0 50.5 21.5t21.5 52.5zM572 308q62 0 106 -45t44 -108q0 -64 -44 -109
t-106 -45t-106 45t-44 109q0 63 44 108t106 45zM643 155q0 30 -21 51.5t-50 21.5q-30 0 -51 -21.5t-21 -51.5q0 -31 21 -53t51 -22q29 0 50 22t21 53zM623 677l-400 -669h-105l395 669h110z" />
    <glyph glyph-name="ampersand" unicode="&#x26;" horiz-adv-x="739" 
d="M692 1h-113l-98 108q-31 -48 -83.5 -76.5t-112.5 -29.5h-1q-99 0 -170 69t-71 165q0 68 37 124.5t97 84.5q-31 44 -36 96v4v16q6 58 49.5 98.5t100.5 40.5q59 0 102 -40.5t49 -98.5v-16v-4q-2 -49 -35 -88t-80 -54l102 -111v43h91v-95l-3 -45zM240 495l23 -24h18h12
q29 2 49.5 23.5t20.5 51.5q0 15 -3 22q-7 24 -25.5 38.5t-43.5 14.5q-28 0 -48 -19t-23 -48v-8q0 -28 20 -51zM284 92q45 2 80.5 26t52.5 63l-176 195q-46 -14 -76 -52.5t-30 -86.5q0 -60 43.5 -102.5t105.5 -42.5z" />
    <glyph glyph-name="parenleft" unicode="(" horiz-adv-x="281" 
d="M108 373q0 -101 38.5 -193t86.5 -106l-39 -73q-63 31 -110 136.5t-47 235.5q0 133 46.5 237t112.5 138l30 -76q-47 -18 -82.5 -108t-35.5 -191z" />
    <glyph glyph-name="parenright" unicode=")" horiz-adv-x="275" 
d="M162 373q0 101 -35.5 191t-82.5 108l30 76q66 -34 112.5 -138t46.5 -237q0 -130 -47 -235.5t-110 -136.5l-39 73q48 14 86.5 106t38.5 193z" />
    <glyph glyph-name="asterisk" unicode="*" horiz-adv-x="833" 
d="M489 617h58v-31h-58l41 -42l-23 -23l-42 41v-58h-31v58l-41 -41l-23 23l40 42h-58v31h58l-40 41l23 23l41 -40v58h31v-58l42 40l23 -23z" />
    <glyph glyph-name="plus" unicode="+" horiz-adv-x="421" 
d="M252 344h120v-92h-120v-120h-92v120h-119v92h119v119h92v-119z" />
    <glyph glyph-name="comma" unicode="," horiz-adv-x="223" 
d="M174 75l-91 -172l-57 33l91 172z" />
    <glyph glyph-name="hyphen" unicode="-" horiz-adv-x="416" 
d="M37 343h335v-88h-335v88z" />
    <glyph glyph-name="period" unicode="." horiz-adv-x="177" 
d="M137 49q0 -20 -15 -35t-35 -15q-21 0 -35.5 15t-14.5 35q0 21 14.5 35.5t35.5 14.5q20 0 35 -14.5t15 -35.5z" />
    <glyph glyph-name="slash" unicode="/" horiz-adv-x="629" 
d="M50 -1l419 701h111l-414 -701h-116z" />
    <glyph glyph-name="zero" unicode="0" horiz-adv-x="570" 
d="M284 701q102 0 174 -74t72 -178v-196q0 -104 -72 -178.5t-174 -74.5q-101 0 -173 74.5t-72 178.5v196q0 104 72 178t173 74zM284 92q66 0 111 47t45 114v196q0 66 -45 113t-111 47q-64 0 -110 -47t-46 -113v-196q0 -67 46 -114t110 -47z" />
    <glyph glyph-name="one" unicode="1" horiz-adv-x="274" 
d="M41 695h185v-98v-595h-91v595h-94v98z" />
    <glyph glyph-name="two" unicode="2" horiz-adv-x="542" 
d="M440 338l-265 -251h314v-88h-439v88l328 312l4 7q21 33 21 74q0 56 -38 95t-92 39q-55 0 -93 -39t-38 -95v-5h-85v5q0 92 63 157t153 65q89 0 152.5 -65t63.5 -157q0 -38 -12 -74l-4 -10q-9 -28 -33 -58z" />
    <glyph glyph-name="three" unicode="3" horiz-adv-x="507" 
d="M376 386q43 -28 68.5 -74t25.5 -99q0 -88 -63.5 -149.5t-152.5 -61.5q-88 0 -151 59.5t-65 145.5h89q2 -50 38.5 -84t88.5 -34t89.5 36.5t37.5 87.5t-37.5 87.5t-89.5 36.5v86h9q35 4 59 31t24 64q0 39 -26.5 67t-65.5 28q-38 0 -65.5 -28t-27.5 -67h-84q0 75 52 128
t125 53t125 -53t52 -128q0 -74 -55 -132z" />
    <glyph glyph-name="four" unicode="4" horiz-adv-x="508" 
d="M370 373v325h92v-699h-92v282h-323v92v325h92v-325h231z" />
    <glyph glyph-name="five" unicode="5" horiz-adv-x="543" 
d="M272 489q98 0 168 -72t70 -173q0 -100 -70 -172t-168 -72t-167.5 72t-69.5 172h86q0 -64 44.5 -109.5t106.5 -45.5q63 0 107.5 45.5t44.5 109.5t-44.5 109.5t-107.5 45.5q-55 0 -97 -36v-2h-2h-87v34v303h9h80h268v-90h-268v-141q45 22 97 22z" />
    <glyph glyph-name="six" unicode="6" horiz-adv-x="552" 
d="M52 337l3 4q13 36 37 65l119 206l52 91l101 -2l-121 -208q11 3 35 3q100 0 171 -72.5t71 -174.5q0 -103 -71 -175.5t-171 -72.5t-170.5 72.5t-70.5 175.5q0 47 16 88h-1zM278 406q-78 0 -123 -63l-3 -6h-1q-26 -41 -26 -88q0 -66 45 -112t108 -46q64 0 109 46t45 112
q0 65 -45 111t-109 46z" />
    <glyph glyph-name="seven" unicode="7" horiz-adv-x="634" 
d="M475 702h17h100l-421 -702h-111l362 611h-362v91h415z" />
    <glyph glyph-name="eight" unicode="8" horiz-adv-x="524" 
d="M480 210v-9v-1q-1 -3 -1 -14q-10 -79 -71.5 -132.5t-144.5 -53.5q-89 0 -152.5 60t-65.5 146q0 7 1.5 20t1.5 16q13 89 92 145q-58 58 -54 130v4v10q0 4 2 10v3v5q12 63 56 104.5t106 45.5q1 0 4.5 1t5.5 1h3h4q3 0 7 -1t7 -1h6v-1q65 -10 108.5 -61t43.5 -120
q0 -16 -1 -24v-5q-11 -60 -52 -101q43 -30 68.5 -76.5t25.5 -99.5v-1zM250 425q2 -2 3 -2h19q31 4 54 26.5t28 55.5q0 3 1 7t1 5q0 38 -23 65t-59 32h-4h-5h-7h-2q-33 -2 -56.5 -24.5t-28.5 -57.5v-1q0 -1 -0.5 -3t-0.5 -4v-5q0 -36 22 -62.5t58 -31.5zM263 87q50 0 87 33.5
t41 80.5q2 49 -28.5 87t-80.5 46q-3 0 -3 2h-7h-7q-48 2 -85 -28.5t-45 -78.5q-6 -50 26 -91t84 -49q6 -2 18 -2z" />
    <glyph glyph-name="nine" unicode="9" horiz-adv-x="576" 
d="M509 364l-3 -4q-10 -29 -36 -66l-119 -205l-52 -90l-102 1l121 207q-24 -2 -35 -2q-100 0 -170.5 72.5t-70.5 175.5t70.5 175.5t170.5 72.5t170.5 -72.5t70.5 -175.5q0 -48 -16 -89h1zM283 295q78 0 122 64l4 5h1q26 41 26 89q0 64 -45 110.5t-108 46.5t-108.5 -46.5
t-45.5 -110.5q0 -66 45 -112t109 -46z" />
    <glyph glyph-name="colon" unicode=":" horiz-adv-x="168" 
d="M136 451q0 -20 -15 -35t-35 -15t-35 15t-15 35q0 21 15 35.5t35 14.5t35 -14.5t15 -35.5zM137 49q0 -20 -15 -35t-35 -15q-21 0 -35.5 15t-14.5 35q0 21 14.5 35.5t35.5 14.5q20 0 35 -14.5t15 -35.5z" />
    <glyph glyph-name="semicolon" unicode=";" horiz-adv-x="229" 
d="M53 -956l-5 -9l-3 2l5 9zM54 -941q0 -2 -2 -2q-3 0 -3 2q0 3 3 3q2 0 2 -3zM182 170l-91 -172l-57 33l91 172zM197 457q0 -42 -41 -42q-18 0 -29 11.5t-11 30.5q0 18 11 29.5t29 11.5q20 0 30.5 -11t10.5 -30z" />
    <glyph glyph-name="less" unicode="&#x3c;" horiz-adv-x="434" 
d="M39 294l77 43l276 166v-88l-202 -121l202 -121v-87l-276 163z" />
    <glyph glyph-name="equal" unicode="=" horiz-adv-x="414" 
d="M37 427h335v-88h-335v88zM37 259h335v-88h-335v88z" />
    <glyph glyph-name="greater" unicode="&#x3e;" horiz-adv-x="435" 
d="M39 503l276 -166l77 -43l-77 -45l-276 -163v87l202 121l-202 121v88z" />
    <glyph glyph-name="question" unicode="?" horiz-adv-x="480" 
d="M235 699q89 0 152.5 -65t63.5 -156q0 -38 -12 -74l-4 -9q-15 -38 -32 -58l-124 -116v-55h-95v22l1 62l14 13l140 134l6 7q20 32 20 74q0 55 -38 94t-92 39q-52 0 -90.5 -39.5t-38.5 -93.5v-5h-86v5q0 91 63 156t152 65zM235 117q26 0 42.5 -17t16.5 -42t-16.5 -42
t-42.5 -17q-24 0 -41 17t-17 42q0 24 17 41.5t41 17.5z" />
    <glyph glyph-name="at" unicode="@" horiz-adv-x="729" 
d="M367 701q139 0 237.5 -102.5t98.5 -247.5q0 -137 -89 -239q-2 -3 -19 -20q-26 -19 -58 -19q-52 0 -79 45q-15 21 -15 49l1 24v20q-38 -27 -89 -27q-66 0 -113.5 48.5t-47.5 115.5q0 68 47.5 116.5t113.5 48.5q45 0 89 -26v30h74v-258v-75q0 -13 12 -13l9 3v2h1
q22 24 40 56q29 55 29 119q0 104 -71 177t-171 73t-170.5 -73t-70.5 -177t70.5 -177.5t170.5 -73.5v-100q-139 0 -237.5 103t-98.5 248t98 247.5t238 102.5zM355 258q34 0 59 22t30 57v25q-5 33 -30.5 55.5t-58.5 22.5q-36 0 -62 -26.5t-26 -65.5q0 -38 26 -64t62 -26z" />
    <glyph glyph-name="A" unicode="A" horiz-adv-x="686" 
d="M489 110h-296l-49 -110h-106l303 703l304 -703h-109zM447 201l-106 244l-106 -244h212z" />
    <glyph glyph-name="B" unicode="B" horiz-adv-x="545" 
d="M419 363q43 -27 68 -71t25 -96q0 -80 -56.5 -137t-137.5 -58h-1h-281v698l238 1q82 -1 140 -59.5t58 -141.5q0 -80 -53 -136zM272 607h-140v-216h140q44 0 75.5 32t31.5 76q0 45 -31.5 76.5t-75.5 31.5zM319 94q43 0 72.5 29t29.5 73q0 43 -30.5 72.5t-73.5 29.5h-185
v-204h187v-5v5z" />
    <glyph glyph-name="C" unicode="C" horiz-adv-x="657" 
d="M553 157l41 -93q-90 -64 -201 -64q-144 0 -247 102.5t-103 247.5t103 247.5t247 102.5q113 0 201 -63l-44 -92q-66 54 -157 54q-104 0 -177 -72.5t-73 -176.5t73 -177t177 -73q90 0 160 57z" />
    <glyph glyph-name="D" unicode="D" horiz-adv-x="647" 
d="M156 100h84q104 0 177 73t73 177q0 103 -73 176.5t-177 73.5h-84v-500zM590 350q0 -144 -101 -247t-244 -103h-187v699l187 -1q143 -2 244 -104.5t101 -243.5z" />
    <glyph glyph-name="E" unicode="E" horiz-adv-x="520" 
d="M147 93h321v-93h-417v700h412v-94h-316v-215h251v-93h-251v-205z" />
    <glyph glyph-name="F" unicode="F" horiz-adv-x="516" 
d="M468 605h-316v-219h254v-89h-254v-297h-94v701h410v-96z" />
    <glyph glyph-name="G" unicode="G" horiz-adv-x="720" 
d="M445 391h210v-390h-95v35q-81 -35 -150 -35q-147 0 -251 104t-104 251q0 145 103.5 245t251.5 100q123 0 194 -63l-35 -88q-66 54 -159 54q-104 0 -176.5 -74t-72.5 -174q0 -107 72 -182.5t177 -75.5q37 0 80.5 18t69.5 44v142h-115v89z" />
    <glyph glyph-name="H" unicode="H" horiz-adv-x="612" 
d="M464 700h97v-699h-97v292h-319v-292h-97v699h97v-319h319v319z" />
    <glyph glyph-name="I" unicode="I" horiz-adv-x="171" 
d="M136 700v-701h-97v701h97z" />
    <glyph glyph-name="J" unicode="J" horiz-adv-x="541" 
d="M385 699h96v-472q-6 -93 -76.5 -160t-168.5 -67h-8q-127 0 -193 96l52 79q65 -79 141 -79q66 0 111.5 42t45.5 107v454z" />
    <glyph glyph-name="K" unicode="K" horiz-adv-x="593" 
d="M548 699l-231 -410l227 -289h-114l-165 192l-113 -192h-91v699h91v-518l284 518h112z" />
    <glyph glyph-name="L" unicode="L" horiz-adv-x="480" 
d="M141 700v-605h294v-95h-389v700h95z" />
    <glyph glyph-name="M" unicode="M" horiz-adv-x="719" 
d="M553 700h114v-699h-96v481l-217 -482l-210 482v-481h-96v699h115l191 -454z" />
    <glyph glyph-name="N" unicode="N" horiz-adv-x="599" 
d="M465 700h92v-700h-110l-307 529v-529h-94v700h111l308 -542v542z" />
    <glyph glyph-name="O" unicode="O" 
d="M374 701q144 0 242.5 -102t98.5 -247q0 -146 -98.5 -248.5t-242.5 -102.5q-138 0 -235 103t-97 248q0 144 97 246.5t235 102.5zM374 97q104 0 174.5 74t70.5 181q0 105 -70.5 178.5t-174.5 73.5q-98 0 -167 -74t-69 -178q0 -106 69 -180.5t167 -74.5z" />
    <glyph glyph-name="P" unicode="P" horiz-adv-x="554" 
d="M390 244q-70 -44 -131 -44h-113v-201h-96v699h209q103 0 174 -72.5t71 -172.5q0 -65 -31 -120.5t-83 -88.5zM146 602v-305h113q60 0 104 45.5t44 110.5q0 60 -44.5 104.5t-103.5 44.5h-113z" />
    <glyph glyph-name="Q" unicode="Q" horiz-adv-x="793" 
d="M736 351q0 -121 -88 -227l79 -96l-70 -61l-78 88q-80 -53 -184 -53q-138 0 -239 103t-101 246t101 246t239 103q144 0 242.5 -102t98.5 -247zM395 107q74 0 114 25l-78 97l78 61l79 -97q52 64 52 158q0 106 -70.5 179.5t-174.5 73.5q-100 0 -172 -74.5t-72 -178.5
t72 -174t172 -70z" />
    <glyph glyph-name="R" unicode="R" horiz-adv-x="630" 
d="M434 269l131 -267l-108 -1l-1 2l-118 229q-18 -2 -28 -2l-2 -1h-105v-229h-94l1 700h156h44q95 -3 162 -71.5t67 -163.5q0 -59 -28 -111t-77 -85zM304 324q58 0 99.5 41.5t41.5 99.5t-41.5 99t-99.5 41h-101v-281h101z" />
    <glyph glyph-name="S" unicode="S" horiz-adv-x="550" 
d="M287 2h-27q-64 0 -120.5 27.5t-89.5 72.5v2l40 68q24 -35 68.5 -58t102.5 -27h26q52 0 89 34.5t37 85.5q0 89 -126 108q-7 2 -14 3t-16.5 2t-16.5 2q-81 16 -134.5 62t-53.5 120q0 79 55.5 136t132.5 57h15q52 0 102.5 -21t77.5 -56l-45 -83q-60 66 -135 70h-15
q-40 0 -68.5 -31t-28.5 -72q0 -77 97 -90q14 -2 30 -3.5t19 -1.5q94 -13 151.5 -65t57.5 -137q0 -86 -61.5 -144.5t-149.5 -60.5z" />
    <glyph glyph-name="T" unicode="T" horiz-adv-x="618" 
d="M30 701h562v-93l-235 1l2 -610h-99l1 610h-231v92z" />
    <glyph glyph-name="U" unicode="U" horiz-adv-x="608" 
d="M455 701h97v-338v-117q-2 -102 -75 -173.5t-176 -71.5q-65 0 -120 30t-89 82q-41 59 -41 133v56v399h96v-338v-112q0 -64 45 -109t109 -45t109 45t45 109v450z" />
    <glyph glyph-name="V" unicode="V" horiz-adv-x="694" 
d="M152 702l190 -447l201 447h110l-311 -702l-300 702h110z" />
    <glyph glyph-name="W" unicode="W" horiz-adv-x="1049" 
d="M1007 700l-301 -701l-182 455l-191 -455l-291 701h100l191 -446l191 446l182 -446l192 446h109z" />
    <glyph glyph-name="X" unicode="X" horiz-adv-x="617" 
d="M578 0h-111l-148 249l-148 -249h-120l203 351l-194 352h121l138 -250l130 250h120l-194 -352z" />
    <glyph glyph-name="Y" unicode="Y" horiz-adv-x="649" 
d="M370 300v-300h-101v300l-227 402h110l163 -301l174 301h109z" />
    <glyph glyph-name="Z" unicode="Z" horiz-adv-x="608" 
d="M559 698l-344 -608h344v-91h-517l344 608h-344v91h517z" />
    <glyph glyph-name="bracketleft" unicode="[" horiz-adv-x="244" 
d="M126 699v-696h103v-85h-103h-85v85v696v85h85h103v-85h-103z" />
    <glyph glyph-name="backslash" unicode="\" horiz-adv-x="630" 
d="M161 700l419 -701h-116l-414 701h111z" />
    <glyph glyph-name="bracketright" unicode="]" horiz-adv-x="302" 
d="M49 794h104h87v-85v-703v-87h-87h-104v87h104v703h-104v85z" />
    <glyph glyph-name="asciicircum" unicode="^" horiz-adv-x="582" 
d="M292 700l50 -86l186 -315h-100l-136 229l-139 -229h-98l184 315z" />
    <glyph glyph-name="underscore" unicode="_" horiz-adv-x="658" 
d="M55 87h538v-88h-538v88z" />
    <glyph glyph-name="grave" unicode="`" horiz-adv-x="278" 
d="M238 651l-39 -83l-166 78l37 81z" />
    <glyph glyph-name="a" unicode="a" horiz-adv-x="564" 
d="M432 501h91v-501h-91v56q-66 -56 -152 -56q-99 0 -169.5 72.5t-70.5 176.5q0 102 70.5 174.5t169.5 72.5q86 0 152 -56v61zM280 91q57 0 100.5 39t51.5 97v42q-8 58 -51.5 97t-100.5 39q-63 0 -108 -46t-45 -110q0 -65 45 -111.5t108 -46.5z" />
    <glyph glyph-name="b" unicode="b" horiz-adv-x="562" 
d="M37 750h90v-303q70 57 154 57q102 0 173.5 -73t71.5 -178t-71.5 -178.5t-173.5 -73.5q-84 0 -154 57v-57h-90v749zM127 272v-39q8 -60 51.5 -100t102.5 -40q64 0 110 47t46 113t-46 112.5t-110 46.5q-59 0 -102.5 -40t-51.5 -100z" />
    <glyph glyph-name="c" unicode="c" horiz-adv-x="463" 
d="M378 130l11 11l42 -89l-10 -4q-65 -47 -142 -47q-104 0 -177 73t-73 177q0 103 73 175.5t177 72.5q77 0 142 -45l10 -5l-42 -86l-14 10q-40 34 -96 34q-65 0 -111 -46t-46 -110q0 -65 46 -111t111 -46q55 0 99 36z" />
    <glyph glyph-name="d" unicode="d" horiz-adv-x="555" 
d="M427 750h90v-749h-90v58q-68 -58 -153 -58q-100 0 -171.5 74t-71.5 178q0 103 71 176t172 73q89 0 153 -55v303zM274 94q60 0 103.5 39.5t49.5 98.5v42q-6 59 -49.5 98.5t-103.5 39.5q-64 0 -109 -46.5t-45 -112.5t45 -112.5t109 -46.5z" />
    <glyph glyph-name="e" unicode="e" horiz-adv-x="556" 
d="M274 501q102 0 174 -73.5t72 -178.5q0 -27 -4 -44h-10h-82h-298q14 -51 55 -83.5t93 -32.5q49 0 84 26h124q-33 -54 -88 -85.5t-120 -31.5q-100 0 -172 73.5t-72 177.5q0 105 72 178.5t172 73.5zM274 410q-52 0 -93 -32.5t-55 -83.5h298q-14 50 -55.5 83t-94.5 33z" />
    <glyph glyph-name="f" unicode="f" horiz-adv-x="380" 
d="M185 500h166v-90h-166l1 -411h-89l-1 411h-75v90h75v1q0 107 74 177t180 70v-94q-68 0 -116.5 -43.5t-48.5 -110.5z" />
    <glyph glyph-name="g" unicode="g" horiz-adv-x="556" 
d="M427 499h94v-493q0 -59 -25 -111t-69 -86q-69 -53 -149 -53q-62 0 -114.5 29.5t-87.5 81.5l54 93q15 -49 56 -81t92 -32q53 0 94 33t55 83v85v9q-1 0 -2 -0.5t-2 -0.5q-63 -55 -149 -55q-78 0 -144 48q-36 28 -65 74q-34 63 -34 128q0 103 71 175.5t172 72.5
q86 0 153 -56v56zM274 93q56 0 98 36q33 29 50 77q2 13 5 66q-8 59 -51.5 98.5t-101.5 39.5q-64 0 -109.5 -46.5t-45.5 -112.5q0 -24 8 -50q17 -48 51 -75q40 -33 96 -33zM130 -37h2l-2 -3v3z" />
    <glyph glyph-name="h" unicode="h" horiz-adv-x="537" 
d="M471 262q0 -29 -2 -261h-89v284q-14 51 -52.5 82.5t-88.5 31.5q-49 0 -87.5 -31.5t-53.5 -80.5l-1 -286h-88l-4 1v748h93v-311q65 52 141 52q90 0 156 -66.5t76 -162.5z" />
    <glyph glyph-name="i" unicode="i" horiz-adv-x="148" 
d="M119 500v-499h-90v499h90zM26 646q0 19 14 33t33 14t33 -14t14 -33t-14 -33t-33 -14t-33 13.5t-14 33.5z" />
    <glyph glyph-name="j" unicode="j" horiz-adv-x="326" 
d="M40 -249v100q61 0 105.5 41t44.5 92v515h100v-515q-14 -102 -84 -164.5t-166 -68.5zM190 649q0 20 14.5 35t35.5 15q20 0 35 -15t15 -35q0 -21 -15 -35.5t-35 -14.5q-21 0 -35.5 14.5t-14.5 35.5z" />
    <glyph glyph-name="k" unicode="k" horiz-adv-x="524" 
d="M312 514h111l-120 -222l168 -291h-109l-121 206l-109 -206h8h-95v753h95v-547z" />
    <glyph glyph-name="l" unicode="l" horiz-adv-x="188" 
d="M141 749v-749h-92v749h92z" />
    <glyph glyph-name="m" unicode="m" horiz-adv-x="916" 
d="M885 267l-1 -265h-90v290q-16 52 -55 83t-89 31q-53 0 -93 -32.5t-54 -86.5v-285h-92v6l3 284q-15 52 -53.5 83t-89.5 31q-48 0 -85.5 -27t-54.5 -72v-307h-92v501h92v-50q61 50 140 50q56 0 105 -28.5t82 -76.5q33 49 83 77t109 28q62 0 114 -33t85 -89q27 -43 36 -112z
" />
    <glyph glyph-name="n" unicode="n" horiz-adv-x="541" 
d="M508 267v-266h-91v291q-14 51 -53.5 82.5t-90.5 31.5q-47 0 -83 -27t-54 -73v-306h-91v500h91v-48q65 48 137 48q93 0 160 -68t75 -165z" />
    <glyph glyph-name="o" unicode="o" horiz-adv-x="545" 
d="M273 499q100 0 171 -73t71 -176q0 -104 -71 -176.5t-171 -72.5q-101 0 -172 72.5t-71 176.5q0 103 71 176t172 73zM273 92q64 0 109 46.5t45 111.5t-45 111.5t-109 46.5t-109.5 -46.5t-45.5 -111.5t45.5 -111.5t109.5 -46.5z" />
    <glyph glyph-name="p" unicode="p" horiz-adv-x="563" 
d="M135 -248h-90v748h90v-56q69 56 155 56q100 0 171 -74t71 -177q0 -104 -71 -177t-171 -73q-86 0 -155 56v-303zM290 409q-59 0 -103 -40t-52 -99v-41q8 -60 52 -99.5t103 -39.5q64 0 109 47t45 112q0 66 -45 113t-109 47z" />
    <glyph glyph-name="q" unicode="q" horiz-adv-x="565" 
d="M524 -253h-93v307q-68 -57 -155 -57q-102 0 -174.5 74t-72.5 179q0 104 72.5 178.5t174.5 74.5q87 0 155 -57v57h93v-756zM431 229v42q-6 58 -51 99t-104 41q-65 0 -111.5 -47t-46.5 -114t46.5 -114t111.5 -47q60 0 104.5 40t50.5 100z" />
    <glyph glyph-name="r" unicode="r" horiz-adv-x="316" 
d="M124 501v-62q70 57 155 57v-88q-63 0 -106 -45.5t-49 -111.5v-251h-90v501h90z" />
    <glyph glyph-name="s" unicode="s" horiz-adv-x="397" 
d="M213 304q70 -8 111.5 -49t41.5 -102q0 -63 -45 -107.5t-111 -44.5h-20q-46 0 -87.5 20t-64.5 54l-5 6l42 72l11 -17q32 -50 122 -52h2q31 0 51.5 20t20.5 49q0 52 -74 63q-66 3 -118.5 39t-52.5 101q0 60 41.5 103t99.5 43h10q38 0 75 -16.5t58 -42.5l6 -7l-45 -80
l-12 14q-36 42 -82 43q-27 0 -45.5 -14.5t-18.5 -42.5q0 -49 89 -52z" />
    <glyph glyph-name="t" unicode="t" horiz-adv-x="425" 
d="M261 501h131v-95h-131v-406h-93v406h-136v95h136v249h93v-249z" />
    <glyph glyph-name="u" unicode="u" horiz-adv-x="551" 
d="M499 499h5v-498h-85v53q-66 -53 -144 -53q-62 0 -115 32.5t-86 87.5q-29 51 -34 113v47v218h91v-38v-156v-96q14 -51 53.5 -82.5t90.5 -31.5q50 0 89.5 31.5t54.5 82.5v290h1h79z" />
    <glyph glyph-name="v" unicode="v" horiz-adv-x="508" 
d="M251 227l120 273h94l-205 -476l-9 -25v1l-1 -1l-17 40l-198 461h96z" />
    <glyph glyph-name="w" unicode="w" horiz-adv-x="709" 
d="M478 214l120 285h86l-199 -480l-7 -19v1v-1l-15 32l-112 272l-113 -274l-12 -30l-1 1v-1l-13 32l-194 467h87l120 -285l127 288z" />
    <glyph glyph-name="x" unicode="x" horiz-adv-x="463" 
d="M339 146l86 -147h-102v6l-93 162l-93 -162v-6h-7h-93l86 147l59 105l-141 247h100l89 -159l89 159h101l-141 -247z" />
    <glyph glyph-name="y" unicode="y" horiz-adv-x="538" 
d="M317 104l-42 -98l-8 -19l-102 -239h-100l152 355l-167 390h95l122 -276l122 276h95z" />
    <glyph glyph-name="z" unicode="z" horiz-adv-x="437" 
d="M31 498h382l-235 -410h226v-88h-381l87 151l144 257h-223v90z" />
    <glyph glyph-name="braceleft" unicode="{" horiz-adv-x="386" 
d="M158 545q0 86 55.5 147t133.5 61v-69q-49 0 -84.5 -42t-35.5 -97q0 -104 -81 -170q37 -29 59 -73.5t22 -96.5q0 -55 35.5 -97t84.5 -42v-68q-78 0 -133.5 61t-55.5 146q0 54 -35.5 93t-84.5 39v1v74v2q50 0 85 38t35 93z" />
    <glyph glyph-name="bar" unicode="|" horiz-adv-x="155" 
d="M42 750h69v-751h-69v751z" />
    <glyph glyph-name="braceright" unicode="}" horiz-adv-x="394" 
d="M227 545q0 -55 35 -93t85 -38v-2v-74v-1q-49 0 -84.5 -39t-35.5 -93q0 -85 -55.5 -146t-133.5 -61v68q49 0 84.5 42t35.5 97q0 52 22 96.5t59 73.5q-81 66 -81 170q0 55 -35.5 97t-84.5 42v69q78 0 133.5 -61t55.5 -147z" />
    <glyph glyph-name="asciitilde" unicode="~" horiz-adv-x="494" 
d="M158 307q-40 0 -66 -29l-3 -3l-47 47l3 3q47 49 113 49q56 0 99 -34l6 -4l7 -7q29 -30 68 -30q38 0 67 30l2 3l48 -47l-3 -3q-48 -50 -114 -50q-53 0 -98 34l-7 7l-6 5q-27 29 -69 29z" />
    <glyph glyph-name="cent" unicode="&#xa2;" horiz-adv-x="463" 
d="M377 127l11 11l39 -89l-9 -7q-47 -33 -118 -45v-87h-93v96q-79 25 -131 91t-52 152q0 85 52 152.5t131 89.5v87h93v-78q62 -6 118 -46l12 -6l-42 -87l-15 11q-38 28 -73 34h-25q-38 0 -68 -13q-40 -19 -65 -58t-25 -86t24.5 -84.5t65.5 -56.5q32 -17 68 -17q20 0 25 2
q43 9 77 34z" />
    <glyph glyph-name="sterling" unicode="&#xa3;" horiz-adv-x="632" 
d="M522 72l4 5l64 -64l-4 -5q-63 -66 -154 -66q-70 0 -130 45l-11 9l-7 8q-41 38 -92 38q-54 0 -90 -38l-4 -6l-62 64l2 2q47 50 108 62v176h-67v79h67v94q0 93 63.5 159.5t153.5 66.5h3q92 0 158 -65t66 -155h-84q0 58 -40.5 98t-99.5 40q-60 0 -100.5 -41.5t-40.5 -102.5
h-3v-94h144v-79h-144v-171q61 -12 103 -43l7 -9l8 -7q43 -40 92 -40q52 0 90 40z" />
    <glyph glyph-name="yen" unicode="&#xa5;" horiz-adv-x="649" 
d="M487 700h111l-211 -375h154v-55h-171l2 -62h169v-55h-169v-153h-97v153h-171v55h171v62h-171v55h156l-213 375h108l169 -298z" />
    <glyph glyph-name="dieresis" unicode="&#xa8;" horiz-adv-x="399" 
d="M145 708q0 -21 -15 -36t-36 -15q-23 0 -37.5 14.5t-14.5 36.5t14.5 37t37.5 15q20 0 35.5 -15.5t15.5 -36.5zM355 708q0 -22 -14.5 -36.5t-36.5 -14.5q-21 0 -36.5 15t-15.5 36t15.5 36.5t36.5 15.5t36 -15.5t15 -36.5z" />
    <glyph glyph-name="acute" unicode="&#xb4;" horiz-adv-x="281" 
d="M72 568l-39 83l168 76l37 -81z" />
    <glyph glyph-name="questiondown" unicode="&#xbf;" horiz-adv-x="480" 
d="M236 -1q-89 0 -152.5 65t-63.5 156q0 38 12 74l4 9q15 38 32 58l124 116v55h95v-22l-1 -62l-14 -13l-140 -134l-6 -7q-20 -32 -20 -74q0 -55 38 -94t92 -39q52 0 90.5 39.5t38.5 93.5v5h86v-5q0 -91 -63 -156t-152 -65zM236 581q-26 0 -42.5 17t-16.5 42t16.5 42t42.5 17
q24 0 41 -17t17 -42q0 -24 -17 -41.5t-41 -17.5z" />
    <glyph glyph-name="Agrave" unicode="&#xc0;" horiz-adv-x="696" 
d="M541 0l-46 109h-295l-49 -109h-106l302 700l303 -700h-109zM242 200h211l-106 243zM450 851l-39 -83l-166 78l37 81z" />
    <glyph glyph-name="Aacute" unicode="&#xc1;" horiz-adv-x="696" 
d="M541 0l-46 109h-295l-49 -109h-106l302 700l303 -700h-109zM242 200h211l-106 243zM284 768l-39 83l168 76l37 -81z" />
    <glyph glyph-name="Acircumflex" unicode="&#xc2;" horiz-adv-x="696" 
d="M541 0l-46 109h-295l-49 -109h-106l302 700l303 -700h-109zM242 200h211l-106 243zM515 883l-38 -82l-130 61l-130 -61l-36 82l166 77v-1l2 1z" />
    <glyph glyph-name="Atilde" unicode="&#xc3;" horiz-adv-x="696" 
d="M541 0l-46 109h-295l-49 -109h-106l302 700l303 -700h-109zM242 200h211l-106 243zM257 881q-40 0 -66 -29l-3 -3l-47 47l3 3q47 49 113 49q56 0 99 -34l6 -4l7 -7q29 -30 68 -30q38 0 67 30l2 3l48 -47l-3 -3q-48 -50 -114 -50q-53 0 -98 34l-7 7l-6 5q-27 29 -69 29z
" />
    <glyph glyph-name="Adieresis" unicode="&#xc4;" horiz-adv-x="696" 
d="M541 0l-46 109h-295l-49 -109h-106l302 700l303 -700h-109zM242 200h211l-106 243zM294 908q0 -21 -15 -36t-36 -15q-23 0 -37.5 14.5t-14.5 36.5t14.5 37t37.5 15q20 0 35.5 -15.5t15.5 -36.5zM504 908q0 -22 -14.5 -36.5t-36.5 -14.5q-21 0 -36.5 15t-15.5 36
t15.5 36.5t36.5 15.5t36 -15.5t15 -36.5z" />
    <glyph glyph-name="Ccedilla" unicode="&#xc7;" horiz-adv-x="657" 
d="M359 8l-1 -13q30 -1 51.5 -23.5t21.5 -54.5t-22.5 -53.5t-54.5 -21.5q-25 0 -44 14l-10 7l23 48l16 -13q7 -7 15 -7q11 0 19 7.5t8 18.5t-8 19t-19 8q-7 0 -15 -5l-19 -14l-20 47v2l10 42q-114 30 -187.5 123t-73.5 212q0 145 101 245.5t245 100.5q111 0 197 -61l-42 -91
q-68 55 -155 55q-102 0 -174.5 -73t-72.5 -176q0 -102 72.5 -174t174.5 -72q88 0 157 56l42 -92q-92 -64 -199 -64q-5 0 -17 1.5t-19 1.5z" />
    <glyph glyph-name="Egrave" unicode="&#xc8;" horiz-adv-x="520" 
d="M147 93h321v-93h-417v700h412v-94h-316v-215h251v-93h-251v-205zM362 851l-39 -83l-166 78l37 81z" />
    <glyph glyph-name="Eacute" unicode="&#xc9;" horiz-adv-x="520" 
d="M147 93h321v-93h-417v700h412v-94h-316v-215h251v-93h-251v-205zM196 768l-39 83l168 76l37 -81z" />
    <glyph glyph-name="Ecircumflex" unicode="&#xca;" horiz-adv-x="520" 
d="M147 93h321v-93h-417v700h412v-94h-316v-215h251v-93h-251v-205zM427 883l-38 -82l-130 61l-130 -61l-36 82l166 77v-1l2 1z" />
    <glyph glyph-name="Edieresis" unicode="&#xcb;" horiz-adv-x="520" 
d="M147 93h321v-93h-417v700h412v-94h-316v-215h251v-93h-251v-205zM206 908q0 -21 -15 -36t-36 -15q-23 0 -37.5 14.5t-14.5 36.5t14.5 37t37.5 15q20 0 35.5 -15.5t15.5 -36.5zM416 908q0 -22 -14.5 -36.5t-36.5 -14.5q-21 0 -36.5 15t-15.5 36t15.5 36.5t36.5 15.5
t36 -15.5t15 -36.5z" />
    <glyph glyph-name="Igrave" unicode="&#xcc;" horiz-adv-x="171" 
d="M136 700v-701h-97v701h97zM189 851l-39 -83l-166 78l37 81z" />
    <glyph glyph-name="Iacute" unicode="&#xcd;" horiz-adv-x="171" 
d="M34 768l-39 83l168 76l37 -81zM136 700v-701h-97v701h97z" />
    <glyph glyph-name="Icircumflex" unicode="&#xce;" horiz-adv-x="171" 
d="M136 700v-701h-97v701h97zM254 883l-38 -82l-130 61l-130 -61l-36 82l166 77v-1l2 1z" />
    <glyph glyph-name="Idieresis" unicode="&#xcf;" horiz-adv-x="171" 
d="M136 700v-701h-97v701h97zM33 908q0 -21 -15 -36t-36 -15q-23 0 -37.5 14.5t-14.5 36.5t14.5 37t37.5 15q20 0 35.5 -15.5t15.5 -36.5zM243 908q0 -22 -14.5 -36.5t-36.5 -14.5q-21 0 -36.5 15t-15.5 36t15.5 36.5t36.5 15.5t36 -15.5t15 -36.5z" />
    <glyph glyph-name="Ntilde" unicode="&#xd1;" horiz-adv-x="599" 
d="M465 700h94v-700h-112l-307 529v-529h-94v700h111l308 -542v542zM209 881q-40 0 -66 -29l-3 -3l-47 47l3 3q47 49 113 49q56 0 99 -34l6 -4l7 -7q29 -30 68 -30t67 30l2 3l48 -47l-3 -3q-48 -50 -114 -50q-53 0 -98 34l-7 7l-6 5q-27 29 -69 29z" />
    <glyph glyph-name="Ograve" unicode="&#xd2;" 
d="M374 701q144 0 242.5 -102t98.5 -247q0 -146 -98.5 -248.5t-242.5 -102.5q-138 0 -235 103t-97 248q0 144 97 246.5t235 102.5zM374 97q104 0 174.5 74t70.5 181q0 105 -70.5 178.5t-174.5 73.5q-98 0 -167 -74t-69 -178q0 -106 69 -180.5t167 -74.5zM482 851l-39 -83
l-166 78l37 81z" />
    <glyph glyph-name="Oacute" unicode="&#xd3;" 
d="M374 701q144 0 242.5 -102t98.5 -247q0 -146 -98.5 -248.5t-242.5 -102.5q-138 0 -235 103t-97 248q0 144 97 246.5t235 102.5zM374 97q104 0 174.5 74t70.5 181q0 105 -70.5 178.5t-174.5 73.5q-98 0 -167 -74t-69 -178q0 -106 69 -180.5t167 -74.5zM316 768l-39 83
l168 76l37 -81z" />
    <glyph glyph-name="Ocircumflex" unicode="&#xd4;" 
d="M374 701q144 0 242.5 -102t98.5 -247q0 -146 -98.5 -248.5t-242.5 -102.5q-138 0 -235 103t-97 248q0 144 97 246.5t235 102.5zM374 97q104 0 174.5 74t70.5 181q0 105 -70.5 178.5t-174.5 73.5q-98 0 -167 -74t-69 -178q0 -106 69 -180.5t167 -74.5zM547 883l-38 -82
l-130 61l-130 -61l-36 82l166 77v-1l2 1z" />
    <glyph glyph-name="Otilde" unicode="&#xd5;" 
d="M374 701q144 0 242.5 -102t98.5 -247q0 -146 -98.5 -248.5t-242.5 -102.5q-138 0 -235 103t-97 248q0 144 97 246.5t235 102.5zM374 97q104 0 174.5 74t70.5 181q0 105 -70.5 178.5t-174.5 73.5q-98 0 -167 -74t-69 -178q0 -106 69 -180.5t167 -74.5zM289 881
q-40 0 -66 -29l-3 -3l-47 47l3 3q47 49 113 49q56 0 99 -34l6 -4l7 -7q28 -30 68 -30q39 0 67 30l2 3l48 -47l-3 -3q-48 -50 -114 -50q-53 0 -98 34l-7 7l-6 5q-27 29 -69 29z" />
    <glyph glyph-name="Odieresis" unicode="&#xd6;" 
d="M374 701q144 0 242.5 -102t98.5 -247q0 -146 -98.5 -248.5t-242.5 -102.5q-138 0 -235 103t-97 248q0 144 97 246.5t235 102.5zM374 97q104 0 174.5 74t70.5 181q0 105 -70.5 178.5t-174.5 73.5q-98 0 -167 -74t-69 -178q0 -106 69 -180.5t167 -74.5zM326 908
q0 -21 -15 -36t-36 -15q-23 0 -37.5 14.5t-14.5 36.5t14.5 37t37.5 15q20 0 35.5 -15.5t15.5 -36.5zM536 908q0 -22 -14.5 -36.5t-36.5 -14.5q-21 0 -36.5 15t-15.5 36t15.5 36.5t36.5 15.5t36 -15.5t15 -36.5z" />
    <glyph glyph-name="Ugrave" unicode="&#xd9;" horiz-adv-x="608" 
d="M455 701h97v-338v-117q-2 -102 -75 -173.5t-176 -71.5q-65 0 -120 30t-89 82q-41 59 -41 133v56v399h96v-338v-112q0 -64 45 -109t109 -45t109 45t45 109v450zM406 851l-39 -83l-166 78l37 81z" />
    <glyph glyph-name="Uacute" unicode="&#xda;" horiz-adv-x="608" 
d="M455 701h97v-338v-117q-2 -102 -75 -173.5t-176 -71.5q-65 0 -120 30t-89 82q-41 59 -41 133v56v399h96v-338v-112q0 -64 45 -109t109 -45t109 45t45 109v450zM240 768l-39 83l168 76l37 -81z" />
    <glyph glyph-name="Ucircumflex" unicode="&#xdb;" horiz-adv-x="608" 
d="M455 701h97v-338v-117q-2 -102 -75 -173.5t-176 -71.5q-65 0 -120 30t-89 82q-41 59 -41 133v56v399h96v-338v-112q0 -64 45 -109t109 -45t109 45t45 109v450zM471 883l-38 -82l-130 61l-130 -61l-36 82l166 77v-1l2 1z" />
    <glyph glyph-name="Udieresis" unicode="&#xdc;" horiz-adv-x="608" 
d="M455 701h97v-338v-117q-2 -102 -75 -173.5t-176 -71.5q-65 0 -120 30t-89 82q-41 59 -41 133v56v399h96v-338v-112q0 -64 45 -109t109 -45t109 45t45 109v450zM250 908q0 -21 -15 -36t-36 -15q-23 0 -37.5 14.5t-14.5 36.5t14.5 37t37.5 15q20 0 35.5 -15.5t15.5 -36.5z
M460 908q0 -22 -14.5 -36.5t-36.5 -14.5q-21 0 -36.5 15t-15.5 36t15.5 36.5t36.5 15.5t36 -15.5t15 -36.5z" />
    <glyph glyph-name="Yacute" unicode="&#xdd;" horiz-adv-x="649" 
d="M272 768l-39 83l168 76l37 -81zM370 300v-300h-101v300l-227 402h110l163 -301l174 301h109z" />
    <glyph glyph-name="agrave" unicode="&#xe0;" horiz-adv-x="564" 
d="M432 501h94v-501h-94v56q-66 -56 -152 -56q-99 0 -169.5 72.5t-70.5 176.5q0 102 70.5 174.5t169.5 72.5q86 0 152 -56v61zM280 91q57 0 100.5 39t51.5 97v42q-8 58 -51.5 97t-100.5 39q-63 0 -108 -46t-45 -110q0 -65 45 -111.5t108 -46.5zM384 651l-39 -83l-166 78
l37 81z" />
    <glyph glyph-name="aacute" unicode="&#xe1;" horiz-adv-x="564" 
d="M432 501h94v-501h-94v56q-66 -56 -152 -56q-99 0 -169.5 72.5t-70.5 176.5q0 102 70.5 174.5t169.5 72.5q86 0 152 -56v61zM280 91q57 0 100.5 39t51.5 97v42q-8 58 -51.5 97t-100.5 39q-63 0 -108 -46t-45 -110q0 -65 45 -111.5t108 -46.5zM218 568l-39 83l168 76
l37 -81z" />
    <glyph glyph-name="acircumflex" unicode="&#xe2;" horiz-adv-x="564" 
d="M432 501h94v-501h-94v56q-66 -56 -152 -56q-99 0 -169.5 72.5t-70.5 176.5q0 102 70.5 174.5t169.5 72.5q86 0 152 -56v61zM280 91q57 0 100.5 39t51.5 97v42q-8 58 -51.5 97t-100.5 39q-63 0 -108 -46t-45 -110q0 -65 45 -111.5t108 -46.5zM449 683l-38 -82l-130 61
l-130 -61l-36 82l166 77v-1l2 1z" />
    <glyph glyph-name="atilde" unicode="&#xe3;" horiz-adv-x="564" 
d="M432 501h94v-501h-94v56q-66 -56 -152 -56q-99 0 -169.5 72.5t-70.5 176.5q0 102 70.5 174.5t169.5 72.5q86 0 152 -56v61zM280 91q57 0 100.5 39t51.5 97v42q-8 58 -51.5 97t-100.5 39q-63 0 -108 -46t-45 -110q0 -65 45 -111.5t108 -46.5zM191 681q-40 0 -66 -29l-3 -3
l-47 47l3 3q47 49 113 49q56 0 99 -34l6 -4l7 -7q29 -30 68 -30t67 30l2 3l48 -47l-3 -3q-48 -50 -114 -50q-53 0 -98 34l-7 7l-6 5q-27 29 -69 29z" />
    <glyph glyph-name="adieresis" unicode="&#xe4;" horiz-adv-x="564" 
d="M432 501h94v-501h-94v56q-66 -56 -152 -56q-99 0 -169.5 72.5t-70.5 176.5q0 102 70.5 174.5t169.5 72.5q86 0 152 -56v61zM280 91q57 0 100.5 39t51.5 97v42q-8 58 -51.5 97t-100.5 39q-63 0 -108 -46t-45 -110q0 -65 45 -111.5t108 -46.5zM228 708q0 -21 -15 -36
t-36 -15q-23 0 -37.5 14.5t-14.5 36.5t14.5 37t37.5 15q20 0 35.5 -15.5t15.5 -36.5zM438 708q0 -22 -14.5 -36.5t-36.5 -14.5q-21 0 -36.5 15t-15.5 36t15.5 36.5t36.5 15.5t36 -15.5t15 -36.5z" />
    <glyph glyph-name="ccedilla" unicode="&#xe7;" horiz-adv-x="463" 
d="M381 122l12 11l41 -89l-8 -6q-57 -40 -132 -46l-3 -11q33 -2 55 -24.5t22 -54.5q0 -34 -23 -56.5t-56 -22.5q-27 0 -46 13l-13 9l25 49l16 -13q12 -7 18 -7q11 0 18.5 8t7.5 20q0 11 -7.5 18.5t-18.5 7.5t-18 -5l-16 -15l-25 50h3l9 38q-91 12 -152.5 84.5t-61.5 165.5
q0 104 74 178t178 74q76 0 144 -46l10 -7l-41 -88l-13 12q-44 34 -100 34q-65 0 -111 -46.5t-46 -110.5q0 -66 46 -113t111 -47q56 0 101 36z" />
    <glyph glyph-name="egrave" unicode="&#xe8;" horiz-adv-x="556" 
d="M274 501q102 0 174 -73.5t72 -178.5q0 -27 -4 -44h-10h-82h-298q14 -51 55 -83.5t93 -32.5q49 0 84 26h124q-33 -54 -88 -85.5t-120 -31.5q-100 0 -172 73.5t-72 177.5q0 105 72 178.5t172 73.5zM274 410q-52 0 -93 -32.5t-55 -83.5h298q-14 50 -55.5 83t-94.5 33z
M380 651l-39 -83l-166 78l37 81z" />
    <glyph glyph-name="eacute" unicode="&#xe9;" horiz-adv-x="556" 
d="M274 501q102 0 174 -73.5t72 -178.5q0 -27 -4 -44h-10h-82h-298q14 -51 55 -83.5t93 -32.5q49 0 84 26h124q-33 -54 -88 -85.5t-120 -31.5q-100 0 -172 73.5t-72 177.5q0 105 72 178.5t172 73.5zM274 410q-52 0 -93 -32.5t-55 -83.5h298q-14 50 -55.5 83t-94.5 33z
M214 568l-39 83l168 76l37 -81z" />
    <glyph glyph-name="ecircumflex" unicode="&#xea;" horiz-adv-x="556" 
d="M274 501q102 0 174 -73.5t72 -178.5q0 -27 -4 -44h-10h-82h-298q14 -51 55 -83.5t93 -32.5q49 0 84 26h124q-33 -54 -88 -85.5t-120 -31.5q-100 0 -172 73.5t-72 177.5q0 105 72 178.5t172 73.5zM274 410q-52 0 -93 -32.5t-55 -83.5h298q-14 50 -55.5 83t-94.5 33z
M445 683l-38 -82l-130 61l-130 -61l-36 82l166 77v-1l2 1z" />
    <glyph glyph-name="edieresis" unicode="&#xeb;" horiz-adv-x="556" 
d="M274 501q102 0 174 -73.5t72 -178.5q0 -27 -4 -44h-10h-82h-298q14 -51 55 -83.5t93 -32.5q49 0 84 26h124q-33 -54 -88 -85.5t-120 -31.5q-100 0 -172 73.5t-72 177.5q0 105 72 178.5t172 73.5zM274 410q-52 0 -93 -32.5t-55 -83.5h298q-14 50 -55.5 83t-94.5 33z
M224 708q0 -21 -15 -36t-36 -15q-23 0 -37.5 14.5t-14.5 36.5t14.5 37t37.5 15q20 0 35.5 -15.5t15.5 -36.5zM434 708q0 -22 -14.5 -36.5t-36.5 -14.5q-21 0 -36.5 15t-15.5 36t15.5 36.5t36.5 15.5t36 -15.5t15 -36.5z" />
    <glyph glyph-name="igrave" unicode="&#xec;" horiz-adv-x="148" 
d="M129 500v-499h-92v499h92zM178 651l-39 -83l-166 78l37 81z" />
    <glyph glyph-name="iacute" unicode="&#xed;" horiz-adv-x="148" 
d="M129 500v-499h-92v499h92zM12 568l-39 83l168 76l37 -81z" />
    <glyph glyph-name="icircumflex" unicode="&#xee;" horiz-adv-x="148" 
d="M129 500v-499h-92v499h92zM242 683l-38 -82l-130 61l-130 -61l-36 82l166 77v-1l2 1z" />
    <glyph glyph-name="idieresis" unicode="&#xef;" horiz-adv-x="148" 
d="M129 500v-499h-92v499h92zM22 708q0 -21 -15 -36t-36 -15q-23 0 -37.5 14.5t-14.5 36.5t14.5 37t37.5 15q20 0 35.5 -15.5t15.5 -36.5zM232 708q0 -22 -14.5 -36.5t-36.5 -14.5q-21 0 -36.5 15t-15.5 36t15.5 36.5t36.5 15.5t36 -15.5t15 -36.5z" />
    <glyph glyph-name="ntilde" unicode="&#xf1;" horiz-adv-x="541" 
d="M508 267v-266h-91v39v252q-14 51 -53.5 82.5t-90.5 31.5q-47 0 -83 -27t-54 -73v-306h-100v500h100v-48q65 48 137 48q93 0 160 -68t75 -165zM180 681q-40 0 -66 -29l-3 -3l-47 47l3 3q47 49 113 49q56 0 99 -34l6 -4l7 -7q28 -30 68 -30q38 0 67 30l2 3l48 -47l-3 -3
q-48 -50 -114 -50q-53 0 -98 34l-7 7l-6 5q-27 29 -69 29z" />
    <glyph glyph-name="ograve" unicode="&#xf2;" horiz-adv-x="545" 
d="M273 499q100 0 171 -73t71 -176q0 -104 -71 -176.5t-171 -72.5q-101 0 -172 72.5t-71 176.5q0 103 71 176t172 73zM273 92q64 0 109 46.5t45 111.5t-45 111.5t-109 46.5t-109.5 -46.5t-45.5 -111.5t45.5 -111.5t109.5 -46.5zM375 651l-39 -83l-166 78l37 81z" />
    <glyph glyph-name="oacute" unicode="&#xf3;" horiz-adv-x="545" 
d="M273 499q100 0 171 -73t71 -176q0 -104 -71 -176.5t-171 -72.5q-101 0 -172 72.5t-71 176.5q0 103 71 176t172 73zM273 92q64 0 109 46.5t45 111.5t-45 111.5t-109 46.5t-109.5 -46.5t-45.5 -111.5t45.5 -111.5t109.5 -46.5zM209 568l-39 83l168 76l37 -81z" />
    <glyph glyph-name="ocircumflex" unicode="&#xf4;" horiz-adv-x="545" 
d="M273 499q100 0 171 -73t71 -176q0 -104 -71 -176.5t-171 -72.5q-101 0 -172 72.5t-71 176.5q0 103 71 176t172 73zM273 92q64 0 109 46.5t45 111.5t-45 111.5t-109 46.5t-109.5 -46.5t-45.5 -111.5t45.5 -111.5t109.5 -46.5zM439 683l-38 -82l-130 61l-130 -61l-36 82
l166 77v-1l2 1z" />
    <glyph glyph-name="otilde" unicode="&#xf5;" horiz-adv-x="545" 
d="M273 499q100 0 171 -73t71 -176q0 -104 -71 -176.5t-171 -72.5q-101 0 -172 72.5t-71 176.5q0 103 71 176t172 73zM273 92q64 0 109 46.5t45 111.5t-45 111.5t-109 46.5t-109.5 -46.5t-45.5 -111.5t45.5 -111.5t109.5 -46.5zM182 681q-40 0 -66 -29l-3 -3l-47 47l3 3
q47 49 113 49q56 0 99 -34l6 -4l7 -7q28 -30 68 -30q38 0 67 30l2 3l48 -47l-3 -3q-48 -50 -114 -50q-53 0 -98 34l-7 7l-6 5q-27 29 -69 29z" />
    <glyph glyph-name="odieresis" unicode="&#xf6;" horiz-adv-x="545" 
d="M273 499q100 0 171 -73t71 -176q0 -104 -71 -176.5t-171 -72.5q-101 0 -172 72.5t-71 176.5q0 103 71 176t172 73zM273 92q64 0 109 46.5t45 111.5t-45 111.5t-109 46.5t-109.5 -46.5t-45.5 -111.5t45.5 -111.5t109.5 -46.5zM219 708q0 -21 -15 -36t-36 -15
q-23 0 -37.5 14.5t-14.5 36.5t14.5 37t37.5 15q20 0 35.5 -15.5t15.5 -36.5zM429 708q0 -22 -14.5 -36.5t-36.5 -14.5q-21 0 -36.5 15t-15.5 36t15.5 36.5t36.5 15.5t36 -15.5t15 -36.5z" />
    <glyph glyph-name="ugrave" unicode="&#xf9;" horiz-adv-x="551" 
d="M503 499h5v-498h-89v53q-66 -53 -144 -53q-62 0 -115 32.5t-86 87.5q-29 51 -34 113q-1 8 -1 24q0 15 1 23v218h91v-38v-156v-96q14 -51 53.5 -82.5t90.5 -31.5q50 0 89.5 31.5t54.5 82.5v290h1h83zM378 651l-39 -83l-166 78l37 81z" />
    <glyph glyph-name="uacute" unicode="&#xfa;" horiz-adv-x="551" 
d="M503 499h5v-498h-89v53q-66 -53 -144 -53q-62 0 -115 32.5t-86 87.5q-29 51 -34 113q-1 8 -1 24q0 15 1 23v218h91v-38v-156v-96q14 -51 53.5 -82.5t90.5 -31.5q50 0 89.5 31.5t54.5 82.5v290h1h83zM212 568l-39 83l168 76l37 -81z" />
    <glyph glyph-name="ucircumflex" unicode="&#xfb;" horiz-adv-x="551" 
d="M503 499h5v-498h-89v53q-66 -53 -144 -53q-62 0 -115 32.5t-86 87.5q-29 51 -34 113q-1 8 -1 24q0 15 1 23v218h91v-38v-156v-96q14 -51 53.5 -82.5t90.5 -31.5q50 0 89.5 31.5t54.5 82.5v290h1h83zM442 683l-38 -82l-130 61l-130 -61l-36 82l166 77v-1l2 1z" />
    <glyph glyph-name="udieresis" unicode="&#xfc;" horiz-adv-x="551" 
d="M503 499h5v-498h-89v53q-66 -53 -144 -53q-62 0 -115 32.5t-86 87.5q-29 51 -34 113q-1 8 -1 24q0 15 1 23v218h91v-38v-156v-96q14 -51 53.5 -82.5t90.5 -31.5q50 0 89.5 31.5t54.5 82.5v290h1h83zM222 708q0 -21 -15 -36t-36 -15q-23 0 -37.5 14.5t-14.5 36.5t14.5 37
t37.5 15q20 0 35.5 -15.5t15.5 -36.5zM432 708q0 -22 -14.5 -36.5t-36.5 -14.5q-21 0 -36.5 15t-15.5 36t15.5 36.5t36.5 15.5t36 -15.5t15 -36.5z" />
    <glyph glyph-name="yacute" unicode="&#xfd;" horiz-adv-x="538" 
d="M217 568l-39 83l168 76l37 -81zM317 104l-42 -98l-8 -19l-102 -239h-100l152 355l-167 390h95l122 -276l122 276h95z" />
    <glyph glyph-name="ydieresis" unicode="&#xff;" horiz-adv-x="538" 
d="M317 104l-42 -98l-8 -19l-102 -239h-100l152 355l-167 390h95l122 -276l122 276h95zM215 708q0 -21 -15 -36t-36 -15q-23 0 -37.5 14.5t-14.5 36.5t14.5 37t37.5 15q20 0 35.5 -15.5t15.5 -36.5zM425 708q0 -22 -14.5 -36.5t-36.5 -14.5q-21 0 -36.5 15t-15.5 36
t15.5 36.5t36.5 15.5t36 -15.5t15 -36.5z" />
    <glyph glyph-name="Scaron" unicode="&#x160;" horiz-adv-x="550" 
d="M287 2q88 2 149.5 60.5t61.5 144.5q0 85 -57.5 137t-151.5 65q-3 0 -19 1.5t-30 3.5q-97 13 -97 90q0 41 28.5 72t68.5 31h15q75 -4 135 -70l45 83q-27 35 -77.5 56t-102.5 21h-15q-77 0 -132.5 -57t-55.5 -136q0 -74 53.5 -120t134.5 -62q5 -1 21.5 -3t25.5 -4
q126 -19 126 -108q0 -51 -37 -85.5t-89 -34.5h-26q-58 4 -102.5 27t-68.5 58l-40 -68v-2q33 -45 89.5 -72.5t120.5 -27.5h27zM394 960l38 -82l-166 -77l-2 1v-1l-166 77l36 82l130 -61z" />
    <glyph glyph-name="scaron" unicode="&#x161;" horiz-adv-x="397" 
d="M213 304q-89 3 -89 52q0 28 18.5 42.5t45.5 14.5q46 -1 82 -43l12 -14l45 80l-6 7q-21 26 -58 42.5t-75 16.5h-10q-58 0 -99.5 -43t-41.5 -103q0 -65 52.5 -101t118.5 -39q74 -11 74 -63q0 -29 -20.5 -49t-51.5 -20h-2q-90 2 -122 52l-11 17l-42 -72l5 -6
q23 -34 64.5 -54t87.5 -20h20q66 0 111 44.5t45 107.5q0 61 -41.5 102t-111.5 49zM324 756l38 -82l-166 -77l-2 1v-1l-166 77l36 82l130 -61z" />
    <glyph glyph-name="Ydieresis" unicode="&#x178;" horiz-adv-x="649" 
d="M265 851q0 -21 -15 -36t-36 -15q-23 0 -37.5 14.5t-14.5 36.5t14.5 37t37.5 15q20 0 35.5 -15.5t15.5 -36.5zM475 851q0 -22 -14.5 -36.5t-36.5 -14.5q-21 0 -36.5 15t-15.5 36t15.5 36.5t36.5 15.5t36 -15.5t15 -36.5zM370 300v-300h-101v300l-227 402h110l163 -301
l174 301h109z" />
    <glyph glyph-name="Zcaron" unicode="&#x17d;" horiz-adv-x="608" 
d="M215 90l344 608h-517v-91h344l-344 -608h517v91h-344zM444 960l38 -82l-166 -77l-2 1v-1l-166 77l36 82l130 -61z" />
    <glyph glyph-name="zcaron" unicode="&#x17e;" horiz-adv-x="437" 
d="M413 498h-382v-90h223l-144 -257l-87 -151h381v88h-226zM355 752l38 -82l-166 -77l-2 1v-1l-166 77l36 82l130 -61z" />
    <glyph glyph-name="circumflex" unicode="&#x2c6;" horiz-adv-x="410" 
d="M365 683l-38 -82l-130 61l-130 -61l-36 82l166 77v-1l2 1z" />
    <glyph glyph-name="tilde" unicode="&#x2dc;" horiz-adv-x="493" 
d="M158 681q-40 0 -66 -29l-3 -3l-47 47l3 3q47 49 113 49q56 0 99 -34l6 -4l7 -7q29 -30 68 -30q38 0 67 30l2 3l48 -47l-3 -3q-48 -50 -114 -50q-53 0 -98 34l-7 7l-6 5q-27 29 -69 29z" />
    <glyph glyph-name="endash" unicode="&#x2013;" horiz-adv-x="555" 
d="M55 255v88h446v-88h-446z" />
    <glyph glyph-name="emdash" unicode="&#x2014;" horiz-adv-x="636" 
d="M55 343h538v-88h-538v88z" />
    <glyph glyph-name="quoteleft" unicode="&#x2018;" horiz-adv-x="226" 
d="M126 550l-91 172l57 33l91 -172z" />
    <glyph glyph-name="quoteright" unicode="&#x2019;" horiz-adv-x="222" 
d="M183 722l-91 -172l-57 33l91 172z" />
    <glyph glyph-name="quotesinglbase" unicode="&#x201a;" horiz-adv-x="238" 
d="M193 71l-91 -172l-57 33l91 172z" />
    <glyph glyph-name="quotedblleft" unicode="&#x201c;" horiz-adv-x="329" 
d="M223 550l-91 172l57 33l91 -172zM141 504l-91 172l57 33l91 -172z" />
    <glyph glyph-name="quotedblright" unicode="&#x201d;" horiz-adv-x="306" 
d="M189 722l-91 -172l-57 33l91 172zM271 676l-91 -172l-57 33l91 172z" />
    <glyph glyph-name="quotedblbase" unicode="&#x201e;" horiz-adv-x="833" 
d="M151 48l-91 -172l-57 33l91 172zM233 2l-91 -172l-57 33l91 172z" />
    <glyph glyph-name="bullet" unicode="&#x2022;" horiz-adv-x="275" 
d="M38 304q0 39 29.5 68t69.5 29q39 0 68 -29t29 -68q0 -40 -29 -69.5t-68 -29.5q-40 0 -69.5 29.5t-29.5 69.5z" />
    <glyph glyph-name="Euro" unicode="&#x20ac;" horiz-adv-x="783" 
d="M72 336h67q-2 13 -2 39q0 25 1 38h-66v85h86q38 110 134.5 179.5t217.5 69.5q116 0 213 -67l-47 -96q-73 57 -166 57q-76 0 -140 -39t-98 -104h291v-85h-319q-3 -19 -3 -38t3 -39h319v-85h-291q35 -65 98.5 -103.5t139.5 -38.5q89 0 168 59l45 -99q-101 -67 -213 -67
q-121 0 -217 69.5t-135 179.5h-86v85z" />
    <glyph glyph-name="CR" horiz-adv-x="500" 
 />
    </font>
</defs>
</svg>
